<svg xmlns="http://www.w3.org/2000/svg" viewBox="0 0 64 64" role="img" aria-label="临川无证之夜 favicon">
  <defs>
    <linearGradient id="paper" x1="0" y1="0" x2="1" y2="1">
      <stop offset="0%" stop-color="#d7cdbd"/>
      <stop offset="100%" stop-color="#b9ae9d"/>
    </linearGradient>
  </defs>
  <rect width="64" height="64" rx="14" fill="#111214"/>
  <path d="M18 12h20l8 8v32H18z" fill="url(#paper)" opacity="0.92"/>
  <path d="M38 12v8h8" fill="none" stroke="#8e8374" stroke-width="2" stroke-linejoin="round"/>
  <path d="M23 22h18" stroke="#8e8374" stroke-width="1.8" opacity="0.7"/>
  <path d="M32 26c-3.5 0-6 2.5-6 5.8 0 2.2 1 3.9 2.6 5v3.2h6.8v-3.2c1.6-1.1 2.6-2.8 2.6-5 0-3.3-2.5-5.8-6-5.8Z" fill="#232529" opacity="0.9"/>
  <path d="M32 28.2c-2.1 0-3.6 1.4-3.6 3.3 0 1.1.5 2.1 1.3 2.8l.7.5v2h3.2v-2l.7-.5c.8-.7 1.3-1.7 1.3-2.8 0-1.9-1.5-3.3-3.6-3.3Z" fill="#cfc4b3"/>
  <path d="M29 42h6" stroke="#7e7467" stroke-width="2" stroke-linecap="round"/>
  <path d="M26 20.5l12 16" stroke="#70665a" stroke-width="1.6" stroke-linecap="round" opacity="0.8"/>
</svg>
